<?xml version="1.0" encoding="utf-8"?>
<!-- Generator: Adobe Illustrator 24.1.1, SVG Export Plug-In . SVG Version: 6.00 Build 0)  -->
<svg version="1.1" xmlns="http://www.w3.org/2000/svg" xmlns:xlink="http://www.w3.org/1999/xlink" x="0px" y="0px"
	 viewBox="0 0 148.2 160.3" style="enable-background:new 0 0 148.2 160.3;" xml:space="preserve">
<style type="text/css">
	.st0{display:none;}
	.st1{display:inline;fill:#B58951;}
	.st2{display:inline;fill:#A58056;}
	.st3{display:inline;fill:#E0C397;}
	.st4{fill:#2A448C;}
	.st5{fill:#ACD18A;}
</style>
<g id="base" class="st0">
	<polygon class="st1" points="149.2,72.5 74.1,28.9 -1.4,71.9 73.6,116.2 	"/>
	<polygon class="st2" points="73.7,131.5 149.3,87.9 149.3,72.5 73.7,116.1 	"/>
	<polygon class="st3" points="73.7,131.5 -1.4,87.3 -1.4,71.9 73.7,116.1 	"/>
</g>
<g id="Layer_1">
	<path class="st4" d="M133.7,160.1H14.5c-7.9,0-14.3-6.4-14.3-14.3V14.5c0-7.9,6.4-14.3,14.3-14.3h119.3c7.9,0,14.3,6.4,14.3,14.3
		v131.4C148,153.7,141.6,160.1,133.7,160.1z"/>
	<path class="st5" d="M29.5,63.4c1.4-3.2,3.2-6.2,5.3-9c1.9-2.6,1.7-6.3-0.4-8.7l0,0c-2.9-3.3-8.2-3.1-10.9,0.4
		c-2.6,3.5-4.9,7.4-6.7,11.4c-1.8,4,0.5,8.7,4.8,9.7h0C24.9,68,28.2,66.4,29.5,63.4z"/>
	<path class="st5" d="M25.8,89.3c-0.4-3.5-0.5-7-0.2-10.5c0.3-3.2-1.8-6.2-4.9-7.2l0,0c-4.3-1.3-8.7,1.6-9.1,6
		c-0.4,4.4-0.3,8.8,0.2,13.2c0.5,4.4,4.9,7.2,9.1,5.8h0C24.2,95.7,26.2,92.6,25.8,89.3z"/>
	<path class="st5" d="M36.1,113.4c-2.2-2.8-4-5.7-5.6-8.9c-1.4-2.9-4.7-4.4-7.9-3.7l0,0c-4.3,1.1-6.6,5.8-4.6,9.9
		c1.9,4,4.3,7.7,7,11.2c2.7,3.5,8,3.6,10.8,0.2l0,0C38,119.7,38.1,116,36.1,113.4z"/>
	<path class="st5" d="M57.3,128.7c-3.3-1.2-6.4-2.8-9.3-4.7c-2.7-1.8-6.4-1.3-8.7,1l0,0c-3.2,3.1-2.6,8.4,1.1,10.8
		c3.7,2.4,7.6,4.4,11.8,6c4.1,1.6,8.7-1,9.4-5.4v0C62.2,133.1,60.4,129.9,57.3,128.7z"/>
	<path class="st5" d="M83.4,130.8c-3.5,0.7-7,0.9-10.4,0.8c-3.3-0.1-6.1,2.2-6.9,5.3l0,0c-1.1,4.3,2.1,8.6,6.6,8.7
		c4.4,0.1,8.8-0.2,13.2-1c4.3-0.8,6.9-5.4,5.2-9.5l0,0C89.9,132.1,86.7,130.2,83.4,130.8z"/>
	<path class="st5" d="M106.8,119.1c-2.6,2.4-5.5,4.4-8.5,6.1c-2.8,1.6-4.1,5-3.2,8.1l0,0c1.3,4.3,6.2,6.2,10.1,4
		c3.8-2.2,7.4-4.7,10.8-7.7c3.3-2.9,3.1-8.2-0.4-10.8l0,0C113,116.8,109.3,116.9,106.8,119.1z"/>
	<path class="st5" d="M120.8,96.9c-1,3.4-2.4,6.6-4.1,9.6c-1.6,2.8-0.9,6.4,1.5,8.6l0,0c3.3,3,8.6,2.1,10.7-1.8
		c2.1-3.8,3.9-7.9,5.2-12.2c1.3-4.2-1.6-8.6-6-9l0,0C124.9,91.8,121.8,93.8,120.8,96.9z"/>
	<path class="st5" d="M121.3,70.7c0.9,3.4,1.3,6.9,1.5,10.4c0.1,3.3,2.5,6,5.7,6.6l0,0c4.4,0.8,8.4-2.7,8.3-7.1
		c-0.1-4.4-0.8-8.8-1.8-13.1c-1.1-4.3-5.8-6.5-9.8-4.6l0,0C122.1,64.2,120.4,67.5,121.3,70.7z"/>
	<path class="st5" d="M108.1,48.1c2.5,2.5,4.7,5.2,6.6,8.1c1.8,2.7,5.3,3.8,8.3,2.6l0,0c4.2-1.6,5.8-6.6,3.4-10.4
		c-2.4-3.7-5.2-7.1-8.4-10.3c-3.1-3.1-8.3-2.6-10.8,1.1l0,0C105.4,42.1,105.7,45.8,108.1,48.1z"/>
	<path class="st5" d="M85.1,35.6c3.4,0.8,6.7,2,9.9,3.5c2.9,1.4,6.5,0.5,8.5-2l0,0c2.7-3.5,1.5-8.7-2.5-10.6
		c-4-1.9-8.1-3.4-12.5-4.4c-4.3-1-8.5,2.1-8.6,6.5v0C79.7,31.8,81.9,34.8,85.1,35.6z"/>
	<polygon class="st5" points="53.4,26.7 74.6,41.9 74.6,11.5 53.4,26.7 74.6,41.9 74.6,11.5 	"/>
</g>
</svg>
